<?xml version="1.0" encoding="UTF-8" standalone="no"?>
<!DOCTYPE svg PUBLIC "-//W3C//DTD SVG 1.1//EN"
 "http://www.w3.org/Graphics/SVG/1.1/DTD/svg11.dtd">
<!-- Generated by graphviz version 2.38.0 (20140413.2041)
 -->
<!-- Title: G Pages: 1 -->
<svg width="414pt" height="787pt"
 viewBox="0.00 0.00 413.69 786.70" xmlns="http://www.w3.org/2000/svg" xmlns:xlink="http://www.w3.org/1999/xlink">
<g id="graph0" class="graph" transform="scale(1 1) rotate(0) translate(4 782.701)">
<title>G</title>
<polygon fill="white" stroke="none" points="-4,4 -4,-782.701 409.69,-782.701 409.69,4 -4,4"/>
<!-- start0 -->
<g id="node1" class="node"><title>start0</title>
<polygon fill="none" stroke="black" points="166.296,-778.701 111.835,-760.701 166.296,-742.701 220.758,-760.701 166.296,-778.701"/>
<polyline fill="none" stroke="black" points="123.229,-764.466 123.229,-756.935 "/>
<polyline fill="none" stroke="black" points="154.903,-746.466 177.69,-746.466 "/>
<polyline fill="none" stroke="black" points="209.364,-756.935 209.364,-764.466 "/>
<polyline fill="none" stroke="black" points="177.69,-774.935 154.903,-774.935 "/>
<text text-anchor="middle" x="166.296" y="-757.001" font-family="Helvetica-Outline" font-size="14.00">start0</text>
</g>
<!-- init -->
<g id="node4" class="node"><title>init</title>
<ellipse fill="none" stroke="black" cx="166.296" cy="-688.701" rx="79.0865" ry="18"/>
<text text-anchor="middle" x="166.296" y="-685.001" font-family="Helvetica-Outline" font-size="14.00">Da Consegnare</text>
</g>
<!-- start0&#45;&gt;init -->
<g id="edge1" class="edge"><title>start0&#45;&gt;init</title>
<path fill="none" stroke="black" d="M166.296,-742.397C166.296,-734.683 166.296,-725.413 166.296,-716.813"/>
<polygon fill="black" stroke="black" points="169.797,-716.805 166.296,-706.805 162.797,-716.805 169.797,-716.805"/>
</g>
<!-- start1 -->
<g id="node2" class="node"><title>start1</title>
<polygon fill="none" stroke="black" points="313.296,-778.701 258.835,-760.701 313.296,-742.701 367.758,-760.701 313.296,-778.701"/>
<polyline fill="none" stroke="black" points="270.229,-764.466 270.229,-756.935 "/>
<polyline fill="none" stroke="black" points="301.903,-746.466 324.69,-746.466 "/>
<polyline fill="none" stroke="black" points="356.364,-756.935 356.364,-764.466 "/>
<polyline fill="none" stroke="black" points="324.69,-774.935 301.903,-774.935 "/>
<text text-anchor="middle" x="313.296" y="-757.001" font-family="Helvetica-Outline" font-size="14.00">start1</text>
</g>
<!-- da_sped -->
<g id="node5" class="node"><title>da_sped</title>
<ellipse fill="#ffd700" stroke="#ffd700" cx="313.296" cy="-607.831" rx="81.4863" ry="18"/>
<text text-anchor="middle" x="313.296" y="-604.131" font-family="Helvetica-Outline" font-size="14.00">Da Spedire OPL</text>
</g>
<!-- start1&#45;&gt;da_sped -->
<g id="edge2" class="edge"><title>start1&#45;&gt;da_sped</title>
<path fill="none" stroke="black" d="M313.296,-742.687C313.296,-716.767 313.296,-667.137 313.296,-636.133"/>
<polygon fill="black" stroke="black" points="316.797,-636.013 313.296,-626.013 309.797,-636.013 316.797,-636.013"/>
</g>
<!-- end -->
<g id="node3" class="node"><title>end</title>
<polygon fill="none" stroke="black" points="138.296,-42 96.2965,-42 96.2965,-0 138.296,-0 138.296,-42"/>
<polyline fill="none" stroke="black" points="108.296,-42 96.2965,-30 "/>
<polyline fill="none" stroke="black" points="96.2965,-12 108.296,-0 "/>
<polyline fill="none" stroke="black" points="126.296,-0 138.296,-12 "/>
<polyline fill="none" stroke="black" points="138.296,-30 126.296,-42 "/>
<text text-anchor="middle" x="117.296" y="-17.3" font-family="Helvetica-Outline" font-size="14.00">end</text>
</g>
<!-- init&#45;&gt;da_sped -->
<g id="edge3" class="edge"><title>init&#45;&gt;da_sped</title>
<path fill="none" stroke="black" d="M195.691,-671.93C218.351,-659.772 249.886,-642.852 274.597,-629.594"/>
<polygon fill="black" stroke="black" points="276.544,-632.521 283.701,-624.709 273.235,-626.353 276.544,-632.521"/>
</g>
<!-- cons_dealer -->
<g id="node10" class="node"><title>cons_dealer</title>
<ellipse fill="coral" stroke="coral" cx="69.2965" cy="-607.831" rx="69.0935" ry="26.7407"/>
<text text-anchor="middle" x="69.2965" y="-611.631" font-family="Helvetica-Outline" font-size="14.00">Consegnato</text>
<text text-anchor="middle" x="69.2965" y="-596.631" font-family="Helvetica-Outline" font-size="14.00">Dealer</text>
</g>
<!-- init&#45;&gt;cons_dealer -->
<g id="edge4" class="edge"><title>init&#45;&gt;cons_dealer</title>
<path fill="none" stroke="black" d="M140.862,-671.55C128.61,-662.443 113.888,-650.756 100.947,-639.943"/>
<polygon fill="black" stroke="black" points="103.052,-637.14 93.1568,-633.355 98.5319,-642.485 103.052,-637.14"/>
</g>
<!-- inv_opl -->
<g id="node6" class="node"><title>inv_opl</title>
<ellipse fill="#ffd700" stroke="#ffd700" cx="313.296" cy="-526.96" rx="63.8893" ry="18"/>
<text text-anchor="middle" x="313.296" y="-523.26" font-family="Helvetica-Outline" font-size="14.00">Inviato OPL</text>
</g>
<!-- da_sped&#45;&gt;inv_opl -->
<g id="edge5" class="edge"><title>da_sped&#45;&gt;inv_opl</title>
<path fill="none" stroke="black" d="M313.296,-589.717C313.296,-579.692 313.296,-566.797 313.296,-555.385"/>
<polygon fill="black" stroke="black" points="316.797,-555.041 313.296,-545.041 309.797,-555.041 316.797,-555.041"/>
</g>
<!-- err_opl -->
<g id="node7" class="node"><title>err_opl</title>
<ellipse fill="#ffd700" stroke="#ffd700" cx="314.296" cy="-356.35" rx="60.3893" ry="18"/>
<text text-anchor="middle" x="314.296" y="-352.65" font-family="Helvetica-Outline" font-size="14.00">Errore OPL</text>
</g>
<!-- inv_opl&#45;&gt;err_opl -->
<g id="edge6" class="edge"><title>inv_opl&#45;&gt;err_opl</title>
<path fill="none" stroke="black" d="M350.769,-512.321C368.223,-503.858 387.304,-491.08 397.296,-472.96 408.83,-452.045 408.009,-440.568 397.296,-419.22 388.318,-401.33 371.442,-387.296 355.24,-377.148"/>
<polygon fill="black" stroke="black" points="356.754,-373.978 346.362,-371.911 353.197,-380.007 356.754,-373.978"/>
</g>
<!-- sped_opl -->
<g id="node8" class="node"><title>sped_opl</title>
<ellipse fill="#ffd700" stroke="#ffd700" cx="310.296" cy="-446.09" rx="77.5641" ry="26.7407"/>
<text text-anchor="middle" x="310.296" y="-449.89" font-family="Helvetica-Outline" font-size="14.00">In Spedizione</text>
<text text-anchor="middle" x="310.296" y="-434.89" font-family="Helvetica-Outline" font-size="14.00">OPL</text>
</g>
<!-- inv_opl&#45;&gt;sped_opl -->
<g id="edge7" class="edge"><title>inv_opl&#45;&gt;sped_opl</title>
<path fill="none" stroke="black" d="M312.646,-508.847C312.361,-501.357 312.015,-492.266 311.677,-483.388"/>
<polygon fill="black" stroke="black" points="315.166,-483.033 311.289,-473.173 308.171,-483.299 315.166,-483.033"/>
</g>
<!-- err_opl&#45;&gt;init -->
<g id="edge12" class="edge"><title>err_opl&#45;&gt;init</title>
<path fill="none" stroke="black" d="M281.63,-371.573C261.709,-381.931 237.44,-397.882 223.296,-419.22 169.343,-500.621 202.333,-539.562 180.296,-634.701 178.334,-643.175 175.987,-652.355 173.782,-660.656"/>
<polygon fill="black" stroke="black" points="170.33,-660.015 171.104,-670.581 177.088,-661.839 170.33,-660.015"/>
</g>
<!-- sped_opl&#45;&gt;err_opl -->
<g id="edge8" class="edge"><title>sped_opl&#45;&gt;err_opl</title>
<path fill="none" stroke="black" d="M311.497,-418.765C311.987,-408.014 312.554,-395.579 313.049,-384.722"/>
<polygon fill="black" stroke="black" points="316.555,-384.661 313.514,-374.512 309.562,-384.342 316.555,-384.661"/>
</g>
<!-- cons_opl -->
<g id="node9" class="node"><title>cons_opl</title>
<ellipse fill="#ffd700" stroke="#ffd700" cx="166.296" cy="-356.35" rx="69.0935" ry="26.7407"/>
<text text-anchor="middle" x="166.296" y="-360.15" font-family="Helvetica-Outline" font-size="14.00">Consegnato</text>
<text text-anchor="middle" x="166.296" y="-345.15" font-family="Helvetica-Outline" font-size="14.00">OPL</text>
</g>
<!-- sped_opl&#45;&gt;cons_opl -->
<g id="edge9" class="edge"><title>sped_opl&#45;&gt;cons_opl</title>
<path fill="none" stroke="black" d="M272.838,-422.267C253.964,-410.767 230.941,-396.738 211.132,-384.669"/>
<polygon fill="black" stroke="black" points="212.934,-381.668 202.573,-379.454 209.291,-387.646 212.934,-381.668"/>
</g>
<!-- cons_opl&#45;&gt;init -->
<g id="edge10" class="edge"><title>cons_opl&#45;&gt;init</title>
<path fill="none" stroke="black" d="M166.296,-383.669C166.296,-445.101 166.296,-597.481 166.296,-660.13"/>
<polygon fill="black" stroke="black" points="162.797,-660.405 166.296,-670.405 169.797,-660.405 162.797,-660.405"/>
</g>
<!-- rich_migr -->
<g id="node11" class="node"><title>rich_migr</title>
<ellipse fill="#b0e2ff" stroke="#b0e2ff" cx="117.296" cy="-266.61" rx="65.1077" ry="26.7407"/>
<text text-anchor="middle" x="117.296" y="-270.41" font-family="Helvetica-Outline" font-size="14.00">Richiesta</text>
<text text-anchor="middle" x="117.296" y="-255.41" font-family="Helvetica-Outline" font-size="14.00">Migrazione</text>
</g>
<!-- cons_opl&#45;&gt;rich_migr -->
<g id="edge11" class="edge"><title>cons_opl&#45;&gt;rich_migr</title>
<path fill="none" stroke="black" d="M152.124,-329.972C147.197,-321.151 141.589,-311.108 136.334,-301.699"/>
<polygon fill="black" stroke="black" points="139.369,-299.955 131.437,-292.931 133.258,-303.369 139.369,-299.955"/>
</g>
<!-- cons_dealer&#45;&gt;init -->
<g id="edge13" class="edge"><title>cons_dealer&#45;&gt;init</title>
<path fill="none" stroke="black" d="M103.375,-631.517C116.697,-641.745 131.566,-653.818 143.566,-664.147"/>
<polygon fill="black" stroke="black" points="141.533,-667.018 151.361,-670.974 146.145,-661.753 141.533,-667.018"/>
</g>
<!-- cons_dealer&#45;&gt;rich_migr -->
<g id="edge14" class="edge"><title>cons_dealer&#45;&gt;rich_migr</title>
<path fill="none" stroke="black" d="M67.9251,-580.704C66.0002,-530.923 65.0086,-419.422 88.2965,-329.48 90.6766,-320.288 94.4037,-310.795 98.4026,-302.088"/>
<polygon fill="black" stroke="black" points="101.595,-303.527 102.798,-293 95.2929,-300.479 101.595,-303.527"/>
</g>
<!-- migr_in_corso -->
<g id="node12" class="node"><title>migr_in_corso</title>
<ellipse fill="#b0e2ff" stroke="#b0e2ff" cx="117.296" cy="-176.87" rx="65.1077" ry="26.7407"/>
<text text-anchor="middle" x="117.296" y="-180.67" font-family="Helvetica-Outline" font-size="14.00">Migrazione</text>
<text text-anchor="middle" x="117.296" y="-165.67" font-family="Helvetica-Outline" font-size="14.00">In Corso</text>
</g>
<!-- rich_migr&#45;&gt;migr_in_corso -->
<g id="edge15" class="edge"><title>rich_migr&#45;&gt;migr_in_corso</title>
<path fill="none" stroke="black" d="M117.296,-239.285C117.296,-231.319 117.296,-222.428 117.296,-213.939"/>
<polygon fill="black" stroke="black" points="120.797,-213.874 117.296,-203.874 113.797,-213.874 120.797,-213.874"/>
</g>
<!-- migr_ok -->
<g id="node13" class="node"><title>migr_ok</title>
<ellipse fill="#b0e2ff" stroke="#b0e2ff" cx="117.296" cy="-96" rx="76.0865" ry="18"/>
<text text-anchor="middle" x="117.296" y="-92.3" font-family="Helvetica-Outline" font-size="14.00">Migrazione OK</text>
</g>
<!-- migr_in_corso&#45;&gt;migr_ok -->
<g id="edge16" class="edge"><title>migr_in_corso&#45;&gt;migr_ok</title>
<path fill="none" stroke="black" d="M117.296,-149.607C117.296,-141.506 117.296,-132.568 117.296,-124.392"/>
<polygon fill="black" stroke="black" points="120.797,-124.22 117.296,-114.22 113.797,-124.22 120.797,-124.22"/>
</g>
<!-- migr_ok&#45;&gt;end -->
<g id="edge17" class="edge"><title>migr_ok&#45;&gt;end</title>
<path fill="none" stroke="black" d="M117.296,-77.7C117.296,-70.0864 117.296,-60.9147 117.296,-52.2311"/>
<polygon fill="black" stroke="black" points="120.797,-52.0184 117.296,-42.0185 113.797,-52.0185 120.797,-52.0184"/>
</g>
</g>
</svg>
